<svg width="27" height="28" viewBox="0 0 27 28" fill="none" xmlns="http://www.w3.org/2000/svg">
<path fill-rule="evenodd" clip-rule="evenodd" d="M26.4711 1.84921C26.7212 1.22843 26.417 0.523883 25.7918 0.275569C25.1665 0.0272553 24.4569 0.329202 24.2068 0.949987L22.5821 4.9826C21.9896 4.55953 21.259 4.30573 20.452 4.30573H3.71942C1.23081 4.30573 -0.531397 6.71944 0.242889 9.06756L2.63807 16.3313C3.13021 17.8238 4.53282 18.8331 6.1146 18.8331H18.0568C19.6386 18.8331 21.0412 17.8238 21.5333 16.3313L23.9285 9.06756C24.0834 8.59783 24.1368 8.12549 24.1032 7.67036C24.1432 7.6078 24.178 7.54068 24.2068 7.46936L26.4711 1.84921ZM20.452 6.72696H3.71942C2.88988 6.72696 2.30248 7.53153 2.56058 8.31424L4.95576 15.5779C5.11981 16.0754 5.58734 16.4119 6.1146 16.4119H18.0568C18.5841 16.4119 19.0516 16.0754 19.2156 15.5779L21.6108 8.31424C21.8689 7.53153 21.2815 6.72696 20.452 6.72696ZM8.80787 23.433C8.80787 24.4359 7.98898 25.2489 6.97882 25.2489C5.96867 25.2489 5.14978 24.4359 5.14978 23.433C5.14978 22.4301 5.96867 21.6171 6.97882 21.6171C7.98898 21.6171 8.80787 22.4301 8.80787 23.433ZM11.2466 23.433C11.2466 25.7731 9.33585 27.6701 6.97882 27.6701C4.62179 27.6701 2.71105 25.7731 2.71105 23.433C2.71105 21.0929 4.62179 19.1958 6.97882 19.1958C9.33585 19.1958 11.2466 21.0929 11.2466 23.433ZM18.5628 23.433C18.5628 24.4359 17.7439 25.2489 16.7337 25.2489C15.7236 25.2489 14.9047 24.4359 14.9047 23.433C14.9047 22.4301 15.7236 21.6171 16.7337 21.6171C17.7439 21.6171 18.5628 22.4301 18.5628 23.433ZM21.0015 23.433C21.0015 25.7731 19.0908 27.6701 16.7337 27.6701C14.3767 27.6701 12.466 25.7731 12.466 23.433C12.466 21.0929 14.3767 19.1958 16.7337 19.1958C19.0908 19.1958 21.0015 21.0929 21.0015 23.433Z" fill="white"/>
</svg>
