<svg width="44" height="38" viewBox="0 0 44 38" fill="none" xmlns="http://www.w3.org/2000/svg">
<mask id="path-1-inside-1_841_889" fill="white">
<path d="M3.31666 3.26459C-1.10555 7.61723 -1.10556 14.6743 3.31666 19.0269L21.2985 36.7258C21.6877 37.1089 22.3123 37.1089 22.7015 36.7258L40.6833 19.0268C45.1056 14.6741 45.1055 7.61712 40.6833 3.26448C36.2611 -1.08816 29.0913 -1.08816 24.6691 3.26448L21.9999 5.89161L19.3309 3.26458C14.9087 -1.08806 7.73888 -1.08805 3.31666 3.26459Z"/>
</mask>
<path d="M3.31666 3.26459C-1.10555 7.61723 -1.10556 14.6743 3.31666 19.0269L21.2985 36.7258C21.6877 37.1089 22.3123 37.1089 22.7015 36.7258L40.6833 19.0268C45.1056 14.6741 45.1055 7.61712 40.6833 3.26448C36.2611 -1.08816 29.0913 -1.08816 24.6691 3.26448L21.9999 5.89161L19.3309 3.26458C14.9087 -1.08806 7.73888 -1.08805 3.31666 3.26459Z" fill="#F15F5F"/>
<path d="M3.31666 19.0269L4.01814 18.3142L4.01814 18.3142L3.31666 19.0269ZM40.6833 19.0268L39.9819 18.3141L39.9819 18.3141L40.6833 19.0268ZM24.6691 3.26448L23.9676 2.55179L23.9676 2.55179L24.6691 3.26448ZM21.9999 5.89161L21.2985 6.6043L21.9999 7.29474L22.7014 6.6043L21.9999 5.89161ZM19.3309 3.26458L20.0324 2.55189L20.0324 2.55189L19.3309 3.26458ZM21.2985 36.7258L22 36.0131L21.2985 36.7258ZM22.7015 36.7258L22 36.0131L22.7015 36.7258ZM4.01814 18.3142C-0.00604794 14.3533 -0.00604567 7.93815 4.01814 3.97728L2.61519 2.5519C-2.20506 7.2963 -2.20506 14.9952 2.61518 19.7396L4.01814 18.3142ZM22 36.0131L4.01814 18.3142L2.61518 19.7396L20.597 37.4385L22 36.0131ZM39.9819 3.97717C44.006 7.93805 44.006 14.3532 39.9819 18.3141L41.3848 19.7395C46.2051 14.9951 46.2051 7.2962 41.3848 2.55179L39.9819 3.97717ZM25.3705 3.97717C29.4036 0.00760907 35.9488 0.00761024 39.9819 3.97717L41.3848 2.55179C36.5734 -2.18393 28.779 -2.18393 23.9676 2.55179L25.3705 3.97717ZM22.7014 6.6043L25.3705 3.97717L23.9676 2.55179L21.2985 5.17891L22.7014 6.6043ZM18.6294 3.97727L21.2985 6.6043L22.7014 5.17891L20.0324 2.55189L18.6294 3.97727ZM4.01814 3.97728C8.05116 0.00771635 14.5964 0.00771383 18.6295 3.97728L20.0324 2.55189C15.221 -2.18383 7.4266 -2.18382 2.61519 2.5519L4.01814 3.97728ZM39.9819 18.3141L22 36.0131L23.4029 37.4385L41.3848 19.7395L39.9819 18.3141ZM20.597 37.4385C21.3754 38.2047 22.6245 38.2047 23.4029 37.4385L22 36.0131L22 36.0131L20.597 37.4385Z" fill="#F15F5F" mask="url(#path-1-inside-1_841_889)"/>
</svg>
