<svg width="17" height="14" viewBox="0 0 17 14" fill="none" xmlns="http://www.w3.org/2000/svg">
<path d="M8.34801 13.306L8.26278 13.3389L8.19763 13.4029L8.17379 13.4263L8.48229 13.7403L8.17378 13.4263C8.08972 13.5089 7.95025 13.5089 7.86618 13.4263L1.54485 7.21556C0.0719775 5.76845 0.0719781 3.42551 1.54485 1.9784C3.02205 0.527046 5.42024 0.527046 6.89744 1.9784L7.74996 2.81601L8.05847 3.11912L8.36698 2.81601L9.38982 1.81106C10.867 0.359706 13.2652 0.359706 14.7424 1.81106C16.2153 3.25817 16.2153 5.60111 14.7424 7.04821L8.42108 13.2589C8.39937 13.2803 8.37462 13.2958 8.34801 13.306Z" fill="#FF7D7D" stroke="#FF7D7D" stroke-width="0.880392"/>
</svg>
