<svg width="24" height="21" viewBox="0 0 24 21" fill="none" xmlns="http://www.w3.org/2000/svg">
<path d="M21.4848 9.72681L12.1737 18.875L11.9872 18.9468L11.8408 19.0907L11.8178 19.1133L2.51515 9.9734C0.480686 7.97453 0.480687 4.74108 2.51515 2.74221C4.55934 0.73378 7.88075 0.733779 9.92494 2.74221L11.1812 3.97646L11.8745 4.65767L12.5679 3.97646L14.0751 2.49562C16.1193 0.487195 19.4407 0.487196 21.4848 2.49562C23.5193 4.49449 23.5193 7.72794 21.4848 9.72681ZM11.8057 19.1252C11.8057 19.1251 11.8058 19.1251 11.8058 19.125L11.8057 19.1252L11.8057 19.1252ZM11.8298 19.1251C11.8298 19.1251 11.8299 19.1251 11.8299 19.1252L11.8298 19.1251Z" stroke="#FF7D7D" stroke-width="1.9786"/>
</svg>
