<svg width="22" height="26" viewBox="0 0 22 26" fill="none" xmlns="http://www.w3.org/2000/svg">
<path fill-rule="evenodd" clip-rule="evenodd" d="M4.01761 10.5384C2.27043 10.5406 0.852319 11.9587 0.85017 13.7058L0.839355 22.4981C0.837207 24.2453 2.25183 25.6599 3.99901 25.6578L17.9621 25.6406C19.7093 25.6385 21.1274 24.2204 21.1295 22.4732L21.1404 13.6809C21.1425 11.9337 19.7279 10.5191 17.9807 10.5212L12.0119 10.5286L12.0199 4.03586L14.415 6.43099C14.8264 6.8423 15.494 6.84148 15.9064 6.42916C16.3187 6.01684 16.3195 5.34916 15.9082 4.93785L11.7151 0.744755C11.3038 0.333449 10.6361 0.33427 10.2238 0.74659L6.02036 4.95001C5.60804 5.36233 5.60722 6.03001 6.01853 6.44132C6.42983 6.85263 7.09752 6.85181 7.50984 6.43949L9.91088 4.03845L9.90289 10.5312L4.01761 10.5384ZM9.90029 12.6402L4.01501 12.6474C3.43262 12.6482 2.95992 13.1209 2.9592 13.7032L2.94838 22.4956C2.94767 23.0779 3.41921 23.5495 4.0016 23.5488L17.9647 23.5316C18.5471 23.5309 19.0198 23.0582 19.0205 22.4758L19.0313 13.6835C19.032 13.1011 18.5605 12.6295 17.9781 12.6303L12.0093 12.6376L12.005 16.1839C12.0042 16.7663 11.5315 17.239 10.9492 17.2397C10.3668 17.2405 9.89522 16.7689 9.89593 16.1865L9.90029 12.6402Z" fill="white"/>
</svg>
