<svg width="52" height="44" viewBox="0 0 52 44" fill="none" xmlns="http://www.w3.org/2000/svg">
<mask id="path-1-inside-1_841_893" fill="white">
<path d="M3.91969 3.85815C-1.30656 9.00218 -1.30657 17.3423 3.91969 22.4863L25.2985 43.5288C25.6877 43.9119 26.3122 43.9119 26.7015 43.5288L48.0803 22.4862C53.3066 17.3422 53.3066 9.00205 48.0803 3.85802C42.854 -1.28601 34.3806 -1.28601 29.1543 3.85802L25.9999 6.96281L22.8456 3.85815C17.6194 -1.28588 9.14595 -1.28588 3.91969 3.85815Z"/>
</mask>
<path d="M3.91969 22.4863L7.42708 18.9229L7.42708 18.9229L3.91969 22.4863ZM48.0803 22.4862L44.5729 18.9228L44.5729 18.9228L48.0803 22.4862ZM48.0803 3.85802L44.5729 7.42148L48.0803 3.85802ZM29.1543 3.85802L25.647 0.294566L25.647 0.294566L29.1543 3.85802ZM25.9999 6.96281L22.4925 10.5263L25.9999 13.9785L29.5073 10.5263L25.9999 6.96281ZM22.8456 3.85815L26.353 0.29469L26.353 0.29469L22.8456 3.85815ZM25.2985 43.5288L21.7911 47.0922L25.2985 43.5288ZM26.7015 43.5288L23.1941 39.9653L26.7015 43.5288ZM7.42708 18.9229C4.19097 15.7377 4.19097 10.6068 7.42708 7.4216L0.412304 0.294693C-6.8041 7.39756 -6.8041 18.9469 0.412301 26.0498L7.42708 18.9229ZM28.8059 39.9653L7.42708 18.9229L0.4123 26.0498L21.7911 47.0922L28.8059 39.9653ZM44.5729 7.42148C47.809 10.6067 47.809 15.7376 44.5729 18.9228L51.5877 26.0497C58.8041 18.9468 58.8041 7.39743 51.5877 0.294567L44.5729 7.42148ZM32.6617 7.42148C35.942 4.19284 41.2927 4.19284 44.5729 7.42148L51.5877 0.294567C44.4154 -6.76485 32.8192 -6.76486 25.647 0.294566L32.6617 7.42148ZM29.5073 10.5263L32.6617 7.42148L25.647 0.294566L22.4925 3.39935L29.5073 10.5263ZM19.3383 7.4216L22.4925 10.5263L29.5073 3.39935L26.353 0.29469L19.3383 7.4216ZM7.42708 7.4216C10.7073 4.19297 16.058 4.19297 19.3383 7.4216L26.353 0.29469C19.1808 -6.76473 7.58457 -6.76473 0.412304 0.294693L7.42708 7.4216ZM44.5729 18.9228L23.1941 39.9653L30.2088 47.0922L51.5877 26.0497L44.5729 18.9228ZM21.7911 47.0922C24.1263 49.3907 27.8736 49.3907 30.2088 47.0922L23.1941 39.9653C24.7509 38.433 27.2491 38.433 28.8059 39.9653L21.7911 47.0922Z" fill="#F15F5F" mask="url(#path-1-inside-1_841_893)"/>
</svg>
